<svg width="22" height="22" viewBox="0 0 22 22" fill="none" xmlns="http://www.w3.org/2000/svg">
<g clip-path="url(#clip0_601_260)">
<path d="M11 0C4.92498 0 0 4.92484 0 10.9998C0 17.0754 4.92498 22 11 22C17.0752 22 22 17.0754 22 10.9998C22 4.92484 17.0752 0 11 0Z" fill="#1ED760"/>
<path d="M15.8028 15.6266C15.6081 15.9459 15.1924 16.0459 14.8743 15.8514C12.3302 14.2964 9.12795 13.9453 5.35669 14.8067C4.99328 14.89 4.63102 14.6623 4.54823 14.299C4.46492 13.9356 4.69184 13.5734 5.05603 13.4904C9.18304 12.547 12.7231 12.953 15.5788 14.698C15.8972 14.8924 15.9974 15.3084 15.8028 15.6266Z" fill="white"/>
<path d="M17.1286 12.6766C16.8835 13.0742 16.3637 13.1989 15.9666 12.9548C13.0552 11.1651 8.61538 10.6466 5.17082 11.6922C4.72422 11.8271 4.25238 11.5754 4.11667 11.1294C3.98212 10.6828 4.23401 10.2119 4.67994 10.0761C8.61487 8.88191 13.5066 9.46024 16.8507 11.5153C17.2477 11.7598 17.3727 12.2799 17.1286 12.6766Z" fill="white"/>
<path d="M17.243 9.60469C13.7506 7.53069 7.99017 7.33998 4.65634 8.35184C4.12085 8.51432 3.55471 8.21209 3.39261 7.67676C3.23037 7.14101 3.5322 6.57525 4.06794 6.41254C7.89507 5.25089 14.2569 5.4752 18.2773 7.86174C18.759 8.1477 18.9168 8.76956 18.6314 9.25031C18.3458 9.73188 17.7233 9.8906 17.243 9.60469Z" fill="white"/>
</g>
<defs>
<clipPath id="clip0_601_260">
<rect width="22" height="22" fill="white"/>
</clipPath>
</defs>
</svg>
