<svg width="7" height="6" viewBox="0 0 7 6" fill="none" xmlns="http://www.w3.org/2000/svg">
<path fill-rule="evenodd" clip-rule="evenodd" d="M5.00617 1.30337L1.99029 4.13457C1.85167 4.26455 1.62597 4.26455 1.48735 4.13457C1.34873 4.00459 1.34873 3.79296 1.48735 3.66298L4.50323 0.831784C4.64185 0.701805 4.86755 0.701805 5.00617 0.831784C5.07548 0.896773 5.11103 0.981759 5.11103 1.06674C5.11103 1.1534 5.07548 1.23838 5.00617 1.30337ZM6.13784 0.95026L5.38254 0.24371C5.03599 -0.0812366 4.47262 -0.0812366 4.12607 0.24371L0.888046 3.28488C0.786746 3.37819 0.712105 3.49484 0.667675 3.62315L0.0172266 5.56617C-0.0698553 5.82279 0.187836 6.06442 0.461522 5.98443L2.53727 5.37286C2.67234 5.33287 2.79674 5.26288 2.89804 5.1679L6.13784 2.12673C6.48439 1.80179 6.48439 1.27521 6.13784 0.95026Z" fill="white"/>
</svg>
