<svg width="23" height="22" viewBox="0 0 23 22" fill="none" xmlns="http://www.w3.org/2000/svg">
<path fill-rule="evenodd" clip-rule="evenodd" d="M23 11C23 11.7915 22.3299 12.4348 21.4998 12.4348H12.9989V20.5652C12.9989 21.3567 12.3288 22 11.4987 22C10.6687 22 10.0011 21.3567 10.0011 20.5652V12.4348H1.49766C0.667572 12.4348 0 11.7915 0 11C0 10.2085 0.667572 9.56522 1.49766 9.56522H10.0011V1.43478C10.0011 0.643261 10.6687 0 11.4987 0C12.3288 0 12.9989 0.643261 12.9989 1.43478V9.56522H21.4998C22.3299 9.56522 23 10.2085 23 11Z" fill="#9E9E9E"/>
</svg>
