<svg width="41" height="41" viewBox="0 0 41 41" fill="none" xmlns="http://www.w3.org/2000/svg">
<g filter="url(#filter0_d_601_310)">
<path d="M12.412 19.2703C12.412 20.4844 11.4202 21.4763 10.206 21.4763C8.99183 21.4763 7.99998 20.4844 7.99998 19.2703C7.99998 18.0561 8.99183 17.0642 10.206 17.0642H12.412V19.2703Z" fill="#E01E5A"/>
<path d="M13.5235 19.2703C13.5235 18.0561 14.5154 17.0642 15.7295 17.0642C16.9437 17.0642 17.9356 18.0561 17.9356 19.2703V24.7939C17.9356 26.008 16.9437 26.9999 15.7295 26.9999C14.5154 26.9999 13.5235 26.008 13.5235 24.7939V19.2703Z" fill="#E01E5A"/>
<path d="M15.7295 10.412C14.5154 10.412 13.5235 9.42017 13.5235 8.206C13.5235 6.99184 14.5154 5.99998 15.7295 5.99998C16.9437 5.99998 17.9356 6.99184 17.9356 8.206V10.412H15.7295Z" fill="#36C5F0"/>
<path d="M15.7296 11.5236C16.9438 11.5236 17.9356 12.5154 17.9356 13.7296C17.9356 14.9438 16.9438 15.9356 15.7296 15.9356H10.206C8.99183 15.9356 7.99998 14.9438 7.99998 13.7296C7.99998 12.5154 8.99183 11.5236 10.206 11.5236H15.7296Z" fill="#36C5F0"/>
<path d="M24.5879 13.7296C24.5879 12.5154 25.5798 11.5236 26.794 11.5236C28.0081 11.5236 29 12.5154 29 13.7296C29 14.9438 28.0081 15.9356 26.794 15.9356H24.5879V13.7296Z" fill="#2EB67D"/>
<path d="M23.4763 13.7296C23.4763 14.9438 22.4845 15.9356 21.2703 15.9356C20.0561 15.9356 19.0643 14.9438 19.0643 13.7296V8.206C19.0643 6.99184 20.0561 5.99998 21.2703 5.99998C22.4845 5.99998 23.4763 6.99184 23.4763 8.206V13.7296Z" fill="#2EB67D"/>
<path d="M21.2703 22.5879C22.4845 22.5879 23.4763 23.5797 23.4763 24.7939C23.4763 26.008 22.4845 26.9999 21.2703 26.9999C20.0561 26.9999 19.0643 26.008 19.0643 24.7939V22.5879H21.2703Z" fill="#ECB22E"/>
<path d="M21.2703 21.4763C20.0561 21.4763 19.0643 20.4844 19.0643 19.2703C19.0643 18.0561 20.0561 17.0642 21.2703 17.0642H26.7939C28.0081 17.0642 28.9999 18.0561 28.9999 19.2703C28.9999 20.4844 28.0081 21.4763 26.7939 21.4763H21.2703Z" fill="#ECB22E"/>
</g>
<defs>
<filter id="filter0_d_601_310" x="0" y="0" width="41" height="40.9998" filterUnits="userSpaceOnUse" color-interpolation-filters="sRGB">
<feFlood flood-opacity="0" result="BackgroundImageFix"/>
<feColorMatrix in="SourceAlpha" type="matrix" values="0 0 0 0 0 0 0 0 0 0 0 0 0 0 0 0 0 0 127 0" result="hardAlpha"/>
<feOffset dx="2" dy="4"/>
<feGaussianBlur stdDeviation="5"/>
<feColorMatrix type="matrix" values="0 0 0 0 0 0 0 0 0 0 0 0 0 0 0 0 0 0 0.25 0"/>
<feBlend mode="normal" in2="BackgroundImageFix" result="effect1_dropShadow_601_310"/>
<feBlend mode="normal" in="SourceGraphic" in2="effect1_dropShadow_601_310" result="shape"/>
</filter>
</defs>
</svg>
