<svg width="18" height="18" viewBox="0 0 18 18" fill="none" xmlns="http://www.w3.org/2000/svg">
<path fill-rule="evenodd" clip-rule="evenodd" d="M3.17938 7.79347C3.19019 4.61303 5.7772 2.04354 8.95764 2.05431C12.1381 2.06515 14.7076 4.65216 14.6968 7.8326V7.89782C14.6576 9.96521 13.5033 11.8761 12.0881 13.3696C11.2787 14.21 10.3749 14.9541 9.3946 15.587C9.13248 15.8137 8.74368 15.8137 8.48156 15.587C7.02018 14.6358 5.73758 13.4348 4.69243 12.0391C3.76089 10.822 3.23201 9.3448 3.17938 7.81304V7.79347Z" stroke="#6A6A6A" stroke-width="1.5" stroke-linecap="round" stroke-linejoin="round"/>
<path opacity="0.4" d="M8.93812 9.74999C9.95745 9.74999 10.7838 8.92366 10.7838 7.90434C10.7838 6.88501 9.95745 6.05869 8.93812 6.05869C7.91879 6.05869 7.09247 6.88501 7.09247 7.90434C7.09247 8.92366 7.91879 9.74999 8.93812 9.74999Z" stroke="#6A6A6A" stroke-width="1.5" stroke-linecap="round" stroke-linejoin="round"/>
</svg>
