<svg width="34" height="34" viewBox="0 0 34 34" fill="none" xmlns="http://www.w3.org/2000/svg">
<path d="M30.891 14.2255H29.7499V14.1667H16.9999V19.8333H25.0062C23.8382 23.132 20.6995 25.5 16.9999 25.5C12.3058 25.5 8.49992 21.6941 8.49992 17C8.49992 12.3059 12.3058 8.5 16.9999 8.5C19.1667 8.5 21.138 9.31741 22.639 10.6526L26.646 6.64558C24.1158 4.28754 20.7314 2.83333 16.9999 2.83333C9.17638 2.83333 2.83325 9.17645 2.83325 17C2.83325 24.8235 9.17638 31.1667 16.9999 31.1667C24.8235 31.1667 31.1666 24.8235 31.1666 17C31.1666 16.0501 31.0688 15.1229 30.891 14.2255Z" fill="#FFC107"/>
<path d="M4.4668 10.4061L9.12125 13.8196C10.3807 10.7015 13.4308 8.49999 17 8.49999C19.1668 8.49999 21.1381 9.31741 22.6391 10.6526L26.6461 6.64558C24.116 4.28754 20.7315 2.83333 17 2.83333C11.5586 2.83333 6.83971 5.90537 4.4668 10.4061Z" fill="#FF3D00"/>
<path d="M17.0001 31.1667C20.6593 31.1667 23.9842 29.7663 26.4981 27.489L22.1135 23.7787C20.6912 24.8561 18.9232 25.5 17.0001 25.5C13.3153 25.5 10.1866 23.1505 9.00793 19.8716L4.38818 23.431C6.73277 28.0188 11.4942 31.1667 17.0001 31.1667Z" fill="#4CAF50"/>
<path d="M30.8911 14.2255H29.75V14.1667H17V19.8333H25.0063C24.4453 21.4179 23.426 22.7843 22.1113 23.7795C22.112 23.7788 22.1128 23.7788 22.1135 23.778L26.498 27.4883C26.1878 27.7702 31.1667 24.0833 31.1667 17C31.1667 16.0501 31.0689 15.1229 30.8911 14.2255Z" fill="#1976D2"/>
</svg>
