<svg width="20" height="20" viewBox="0 0 20 20" fill="none" xmlns="http://www.w3.org/2000/svg">
<path fill-rule="evenodd" clip-rule="evenodd" d="M3.53259 8.65942C3.5446 5.1256 6.41906 2.2706 9.95288 2.28257C13.4867 2.29461 16.3417 5.16908 16.3297 8.7029V8.77536C16.2862 11.0725 15.0036 13.1957 13.4311 14.8551C12.5319 15.7889 11.5276 16.6157 10.4384 17.3188C10.1471 17.5708 9.71514 17.5708 9.4239 17.3188C7.80015 16.262 6.37504 14.9276 5.21375 13.3768C4.17872 12.0245 3.59106 10.3831 3.53259 8.68116V8.65942Z" stroke="#6A6A6A" stroke-width="1.5" stroke-linecap="round" stroke-linejoin="round"/>
<path opacity="0.4" d="M9.9311 10.8333C11.0637 10.8333 11.9818 9.91519 11.9818 8.7826C11.9818 7.65002 11.0637 6.73188 9.9311 6.73188C8.79851 6.73188 7.88037 7.65002 7.88037 8.7826C7.88037 9.91519 8.79851 10.8333 9.9311 10.8333Z" stroke="#6A6A6A" stroke-width="1.5" stroke-linecap="round" stroke-linejoin="round"/>
</svg>
