<svg width="16" height="14" viewBox="0 0 16 14" fill="none" xmlns="http://www.w3.org/2000/svg">
<path d="M11.2259 1.11531e-08C10.5 0.000126647 9.78708 0.19348 9.16053 0.560206C8.53397 0.926932 8.01631 1.45381 7.6607 2.08675C7.30502 1.45366 6.7872 0.926684 6.16045 0.55995C5.5337 0.193215 4.82061 -5.36064e-05 4.09445 1.11531e-08C2.9823 0.0600645 1.93613 0.546576 1.17355 1.35833C0.410968 2.17008 -0.00930421 3.24458 0.000156321 4.35831C0.000156321 10.0377 7.6607 14 7.6607 14C7.6607 14 15.3213 10.0397 15.3213 4.35831C15.3307 3.24442 14.9103 2.16978 14.1475 1.35799C13.3847 0.546214 12.3383 0.0598122 11.2259 1.11531e-08V1.11531e-08Z" fill="#FF0000"/>
</svg>
